# xmcd
#
# Track frame offsets:
#	150
#	16951
#	35230
#	51210
#	63686
#	81126
#	95977
#	113483
#	125053
#	138874
#	154760
#	166853
#	188834
#	203717
#	219111
#	236749
#
# Disc length: 3302 seconds
#
# Revision: 1
# Processed by: cddbd v1.5.2PL0 Copyright (c) Steve Scherf et al.
# Submitted via: audiograbber 1.83.01
#
DISCID=df0ce410
DTITLE=Sampler - 16 Top Hits - Tophits Der Monate März/April '79
DYEAR=1979
DGENRE=Pop
TTITLE0=Village People - Y.M.C.A.
TTITLE1=Baccara - The Devil Sent You To Lorado
TTITLE2=Jürgen Drews - Du Schaffst Mich (You Thrill Me)
TTITLE3=Snoopy - No Time For A Tango
TTITLE4=Sylvester - You Make Me Feel (Mighty Real)
TTITLE5=Peter Orloff - Cora Komm Nach Haus (Tom Tom Turnaround)
TTITLE6=Paola - Blue Bayou
TTITLE7=Richard Clayderman - Ballade Pour Adeline
TTITLE8=The Ritchie Family - American Generation
TTITLE9=Barry Manilow - Mandy
TTITLE10=Elke Best - Du Bist Der Größte (Last Time I Saw Her)
TTITLE11=Mike Kennedy - Out Of Time
TTITLE12=Teach In - Dear John
TTITLE13=Marc De Ville - Walking Alone In The Rain
TTITLE14=Luisa Fernandez - Stop (When You Do What You Do)
TTITLE15=Rudi Carrell - Goethe War Gut
EXTD=
EXTT0=
EXTT1=
EXTT2=
EXTT3=
EXTT4=
EXTT5=
EXTT6=
EXTT7=
EXTT8=
EXTT9=
EXTT10=
EXTT11=
EXTT12=
EXTT13=
EXTT14=
EXTT15=
PLAYORDER=
